<?xml version="1.0" encoding="UTF-8"?>
<svg id="_레이어_1" data-name="레이어 1" xmlns="http://www.w3.org/2000/svg" width="160" height="50" viewBox="0 0 160 50">
  <defs>
    <style>
      .cls-1 {
        fill: #ec1b23;
      }

      .cls-1, .cls-2 {
        stroke-width: 0px;
      }

      .cls-2 {
        fill: #221e1f;
      }
    </style>
  </defs>
  <path class="cls-2" d="M68.92,29.81l14.1-17.36h-7.69c-3.45,0-5.82,1.05-7.92,3.51l-7.43,9.14V0h-7.45c-1.75,0-3.17,1.42-3.17,3.18v46.82h7.45c1.75,0,3.17-1.42,3.17-3.18v-12.46l6.04,7.41,5.13,6.32c1.03,1.3,2.4,1.9,3.8,1.9h10.4l-6.73-8.25-9.71-11.94ZM101.51,41.16c-1.56,0-2.85-1.28-2.85-2.85V0h-7.45c-1.75,0-3.18,1.42-3.18,3.17v37.13c0,5.74,3.96,9.7,9.7,9.7h8.19c1.75,0,3.18-1.42,3.18-3.18v-5.66h-7.59Z"/>
  <path class="cls-1" d="M61,23.82l.02-.02s-.01.01-.02.01h0ZM110.64,16.74v-7.05s-.66.7-.66.7c-.02.01-2.02,2.05-7.75,2.05h-27.09c-4.28,0-6.3,1.74-7.83,3.63l-.84,1.03s-.05.06-.08.09l-5.38,6.62c1.96-1.48,4.63-2.36,7.37-2.36h33.85c4.11,0,8.05-1.21,8.37-4.28.04-.25.04-.41.04-.41Z"/>
</svg>