<?xml version="1.0" encoding="UTF-8"?>
<svg id="_레이어_1" data-name="레이어 1" xmlns="http://www.w3.org/2000/svg" width="140" height="40" viewBox="0 0 140 40">
  <defs>
    <style>
      .cls-1 {
        fill: #ff7a00;
      }

      .cls-1, .cls-2 {
        stroke-width: 0px;
      }

      .cls-2 {
        fill: #ea002c;
      }
    </style>
  </defs>
  <g>
    <g>
      <path class="cls-1" d="M118.83,30.2c-2.03,0-3.08,1.34-3.24,1.54-.51-.97-1.46-1.54-2.69-1.54-1.79,0-2.81,1.04-2.97,1.21-.07-.28-.44-1.04-1.6-1.04-.33,0-.82.11-.86.12.05.22.27,1.28.27,2.74v6.43h2.35v-6.55s.93-.93,1.99-.93,1.58.79,1.58,1.87v5.62h2.36v-6.56s.91-.93,1.98-.93,1.57.79,1.57,1.87v5.62h2.37v-5.98c0-2.1-1.2-3.47-3.11-3.47Z"/>
      <path class="cls-1" d="M93.02,37.95c-1.6,0-2.74-1.26-2.74-2.92,0-1.84,1.3-2.93,2.74-2.93.78,0,1.11.24,1.62.24.55,0,.84-.27,1.12-.8.15-.29.24-.46.24-.46-.12-.07-1.31-.88-3.33-.88-2.97,0-4.74,2.13-4.74,4.84,0,2.96,2.03,4.82,4.74,4.82,1.97,0,3.16-.8,3.37-.95l-.82-1.61c-.18.12-1.02.66-2.19.66Z"/>
      <path class="cls-1" d="M67.2,30.2c-2.26,0-4.16,1.83-4.16,4.84s1.85,4.82,4.6,4.82c2.19,0,3.33-.96,3.46-1.05,0,0-.21-.35-.27-.44-.31-.5-.66-.67-1.05-.67-.78,0-.88.32-1.93.32-1.8,0-2.43-1.41-2.47-2.35h6.04v-.7c0-2.88-1.66-4.78-4.23-4.78ZM65.39,34.01c0-1.06.74-2.04,1.78-2.04,1.16,0,1.8,1.01,1.82,2.04h-3.6Z"/>
      <path class="cls-1" d="M75.46,37.05v-9.63c0-1.09-.73-1.93-1.85-1.93h-.5v12.5c0,1.15.71,1.87,1.95,1.87,1.53,0,1.99-1.09,1.99-2.11-.06.03-.39.16-.71.16-.54,0-.87-.32-.87-.86Z"/>
      <path class="cls-1" d="M59.72,36.72v-4.58h1.97l.69-1.77h-2.65v-2.77s-.21,0-.22,0c-1.05,0-2.13.44-2.13,2.75v.02h-1.74v1.77h1.74v5.39c0,1.53.9,2.32,2.18,2.32,1.04,0,2.37-.32,2.37-2.37-.08.05-.58.37-1.13.37-.77,0-1.07-.47-1.07-1.14Z"/>
    </g>
    <path class="cls-1" d="M81.98,30.2c-2.26,0-4.16,1.83-4.16,4.84s1.84,4.82,4.6,4.82c2.19,0,3.33-.96,3.46-1.05,0,0-.21-.35-.27-.44-.31-.5-.66-.67-1.05-.67-.78,0-.88.32-1.93.32-1.8,0-2.43-1.41-2.47-2.35h6.04v-.7c0-2.88-1.66-4.78-4.23-4.78ZM80.16,34.01c0-1.06.74-2.04,1.78-2.04,1.16,0,1.8,1.01,1.82,2.04h-3.6Z"/>
    <path class="cls-1" d="M101.43,39.86c-2.88,0-4.62-1.9-4.62-4.83s1.71-4.84,4.62-4.84,4.62,1.92,4.62,4.84c0,2.75-1.58,4.83-4.62,4.83ZM101.43,38.05c1.44,0,2.28-1.24,2.28-3.01s-.81-3.02-2.28-3.02-2.27,1.23-2.27,3.02.81,3.01,2.27,3.01Z"/>
  </g>
  <g>
    <g>
      <path class="cls-2" d="M25.58,29.36c-1.42-.66-2.59-1.2-2.59-2.29,0-.83.66-1.43,1.98-1.43.48,0,.88.06,1.29.13.21.04.44.07.63.07,1.15,0,1.79-.68,2.22-1.98l.18-.53c-.18-.07-2.06-.9-4.5-.9-3.89,0-5.94,2.49-5.94,5.08,0,1.3.41,2.25,1.05,2.99.82.96,2,1.58,3.1,2.12,1.6.79,3.05,1.37,3.05,2.53,0,1.03-1.07,1.62-2.49,1.62-1.96,0-3.66-1.12-3.88-1.25l-1.61,3.01c.29.16,2.35,1.47,5.76,1.47,3.63,0,6.37-2.08,6.37-5.28s-2.55-4.36-4.61-5.36Z"/>
      <path class="cls-2" d="M39.76,30.84l6.58-8.07h-4.69l-5.25,6.96h-.08v-6.96h-3.86v17.09h.23c1.67,0,3.66-.77,3.66-3.56v-3.92h.08l5.35,7.27h4.92l-6.94-8.81Z"/>
    </g>
    <g>
      <path class="cls-2" d="M46.56,4.48c-1.36.26-3.38,1.49-3.37,3.67,0,1.98,1.63,3.18,1.63,5.78,0,1.95-1.07,3.27-2.23,4,.47-.04.99-.07,1.55-.07,1.19,0,1.91.11,1.95.12l6.1-7.49c-1.69-2.54-3.67-4.51-5.63-6.02Z"/>
      <path class="cls-2" d="M51.69,24.7c.77-1.2.87-3.1.93-5.04.07-1.81.45-3.17,2.87-3.18.54,0,1.05.07,1.97.07,3.55-.02,5.87-1.24,7.31-2.04-2.94-1.88-7.24-3.79-12.57-4.01-.35.98-3.05,8.49-3.25,9.1.03.04.5.57,1.09,1.6.87,1.42,1.34,2.62,1.65,3.5Z"/>
    </g>
  </g>
  <g>
    <path class="cls-1" d="M38.8,18.56c-.31,0-.46-.2-.5-.56-.04-.35-1.57-14.31-1.79-16.43-.03-.31-.11-.88-.11-1.08,0-.33.21-.5.46-.5.72,0,4.66.92,8.85,3.85-1.2.34-3.38,1.59-3.37,4.19,0,2.3,1.65,3.56,1.66,5.86.01,3.75-4.29,4.65-5.19,4.66Z"/>
    <path class="cls-1" d="M52.04,25.69c.07.17.13.32.19.42.1.16.22.24.38.24.1,0,.22-.03.35-.09.32-.15,13.06-6.08,14.99-6.97.28-.13.81-.37.98-.47.18-.1.26-.25.26-.41,0-.09-.03-.17-.07-.25-.24-.39-1.47-1.7-3.53-3.13-1.64.9-4.19,2.29-7.99,2.31-.93,0-1.14-.06-1.78-.06-1.86,0-2.32.8-2.39,2.43-.01.31-.02.72-.03,1.17-.06,1.45-.23,3.46-1.34,4.8Z"/>
  </g>
</svg>