<?xml version="1.0" encoding="UTF-8"?>
<svg id="_레이어_1" data-name="레이어 1" xmlns="http://www.w3.org/2000/svg" width="160" height="50" viewBox="0 0 160 50">
  <defs>
    <style>
      .cls-1 {
        fill: #ff7a00;
      }

      .cls-1, .cls-2 {
        stroke-width: 0px;
      }

      .cls-2 {
        fill: #ea002c;
      }
    </style>
  </defs>
  <g>
    <g>
      <path class="cls-1" d="M141.04,37.75c-2.54,0-3.85,1.68-4.05,1.93-.64-1.21-1.82-1.93-3.37-1.93-2.24,0-3.51,1.3-3.72,1.51-.09-.35-.55-1.3-2-1.3-.42,0-1.03.13-1.08.14.06.27.33,1.59.33,3.42v8.04h2.94v-8.19c.06-.05,1.16-1.17,2.48-1.17s1.98.99,1.98,2.34v7.02h2.95v-8.2c.06-.06,1.14-1.16,2.48-1.16s1.96.99,1.96,2.34v7.02h2.97v-7.48c0-2.63-1.49-4.33-3.89-4.33Z"/>
      <path class="cls-1" d="M108.77,47.44c-2,0-3.43-1.58-3.43-3.64,0-2.3,1.62-3.67,3.43-3.67.97,0,1.38.3,2.03.3.69,0,1.05-.33,1.4-1,.19-.37.3-.58.3-.58-.15-.09-1.64-1.1-4.17-1.1-3.71,0-5.93,2.66-5.93,6.05,0,3.7,2.54,6.03,5.93,6.03,2.46,0,3.95-1,4.21-1.19l-1.02-2.01c-.23.14-1.28.82-2.74.82Z"/>
      <path class="cls-1" d="M76.5,37.75c-2.82,0-5.2,2.29-5.2,6.05s2.31,6.03,5.75,6.03c2.74,0,4.16-1.2,4.33-1.31,0,0-.27-.43-.34-.56-.38-.63-.82-.83-1.31-.83-.97,0-1.09.4-2.41.4-2.25,0-3.04-1.76-3.09-2.93h7.55v-.87c0-3.6-2.07-5.97-5.29-5.97ZM74.23,42.51c0-1.32.93-2.55,2.23-2.55,1.45,0,2.26,1.26,2.28,2.55h-4.5Z"/>
      <path class="cls-1" d="M86.83,46.31v-12.04c0-1.36-.91-2.41-2.31-2.41h-.63v15.63c0,1.44.89,2.33,2.44,2.33,1.91,0,2.48-1.36,2.48-2.64-.08.04-.48.21-.89.21-.68,0-1.09-.4-1.09-1.08Z"/>
      <path class="cls-1" d="M67.15,45.9v-5.72h2.46l.86-2.22h-3.32v-3.46s-.26,0-.27,0c-1.31,0-2.67.56-2.67,3.43v.03h-2.18v2.21h2.18v6.74c0,1.91,1.13,2.9,2.73,2.9,1.3,0,2.97-.39,2.97-2.96-.1.06-.73.47-1.42.47-.96,0-1.34-.58-1.34-1.43Z"/>
    </g>
    <path class="cls-1" d="M94.97,37.75c-2.82,0-5.2,2.29-5.2,6.05s2.31,6.03,5.75,6.03c2.74,0,4.16-1.2,4.33-1.31,0,0-.27-.43-.34-.56-.38-.63-.82-.83-1.31-.83-.97,0-1.09.4-2.41.4-2.25,0-3.04-1.76-3.09-2.93h7.55v-.87c0-3.6-2.07-5.97-5.29-5.97ZM92.7,42.51c0-1.32.93-2.55,2.23-2.55,1.45,0,2.26,1.26,2.28,2.55h-4.5Z"/>
    <path class="cls-1" d="M119.28,49.82c-3.6,0-5.77-2.38-5.77-6.03s2.14-6.04,5.77-6.04,5.77,2.4,5.77,6.04c0,3.44-1.97,6.03-5.77,6.03ZM119.28,47.56c1.81,0,2.85-1.55,2.85-3.77s-1.02-3.78-2.85-3.78-2.84,1.54-2.84,3.78,1.01,3.77,2.84,3.77Z"/>
  </g>
  <g>
    <g>
      <path class="cls-2" d="M24.47,36.7c-1.78-.83-3.24-1.5-3.24-2.86,0-1.04.83-1.79,2.47-1.79.6,0,1.1.07,1.61.16.27.05.55.09.79.09,1.43,0,2.24-.85,2.78-2.48l.22-.66c-.23-.09-2.57-1.12-5.62-1.12-4.86,0-7.42,3.12-7.42,6.35,0,1.63.51,2.81,1.31,3.74,1.03,1.2,2.5,1.98,3.87,2.65,2,.98,3.81,1.71,3.81,3.16,0,1.29-1.33,2.03-3.12,2.03-2.44,0-4.58-1.4-4.85-1.57l-2.01,3.76c.36.2,2.94,1.84,7.2,1.84,4.53,0,7.97-2.6,7.97-6.6s-3.18-5.45-5.76-6.7Z"/>
      <path class="cls-2" d="M42.2,38.55l8.22-10.08h-5.86l-6.56,8.7h-.1v-8.7h-4.83v21.36h.29c2.09,0,4.57-.97,4.57-4.45v-4.9h.1l6.69,9.09h6.15l-8.67-11.01Z"/>
    </g>
    <g>
      <path class="cls-2" d="M50.7,5.59c-1.7.32-4.22,1.86-4.21,4.59,0,2.48,2.03,3.98,2.04,7.23,0,2.44-1.34,4.09-2.79,5,.59-.05,1.23-.09,1.94-.09,1.49,0,2.38.14,2.44.15l7.63-9.36c-2.12-3.17-4.59-5.63-7.04-7.52Z"/>
      <path class="cls-2" d="M57.11,30.87c.96-1.49,1.08-3.88,1.16-6.3.09-2.26.56-3.97,3.59-3.98.67,0,1.31.09,2.47.09,4.44-.02,7.33-1.55,9.13-2.55-3.68-2.35-9.05-4.74-15.72-5.01-.43,1.22-3.81,10.62-4.07,11.37.04.05.63.71,1.37,2,1.09,1.78,1.67,3.28,2.06,4.38Z"/>
    </g>
  </g>
  <g>
    <path class="cls-1" d="M41,23.2c-.39,0-.58-.25-.63-.7-.05-.44-1.96-17.89-2.24-20.53-.04-.39-.14-1.09-.14-1.35,0-.41.26-.62.58-.62.9,0,5.83,1.15,11.06,4.81-1.51.42-4.23,1.99-4.22,5.24,0,2.87,2.07,4.45,2.08,7.33.02,4.68-5.37,5.82-6.48,5.82Z"/>
    <path class="cls-1" d="M57.55,32.12c.08.22.16.4.24.53.12.2.28.3.47.3.12,0,.27-.04.44-.12.4-.19,16.33-7.6,18.73-8.71.35-.17,1.01-.46,1.23-.59.23-.13.33-.32.33-.51,0-.11-.03-.21-.09-.31-.3-.49-1.84-2.12-4.42-3.91-2.05,1.13-5.24,2.87-9.99,2.89-1.16,0-1.43-.08-2.22-.07-2.32,0-2.9,1-2.98,3.03-.01.38-.02.9-.04,1.47-.07,1.82-.29,4.32-1.68,6Z"/>
  </g>
</svg>