<?xml version="1.0" encoding="UTF-8"?>
<svg id="_레이어_1" data-name="레이어 1" xmlns="http://www.w3.org/2000/svg" width="140" height="40" viewBox="0 0 140 40">
  <defs>
    <style>
      .cls-1 {
        fill: #ec1b23;
      }

      .cls-1, .cls-2 {
        stroke-width: 0px;
      }

      .cls-2 {
        fill: #221e1f;
      }
    </style>
  </defs>
  <path class="cls-2" d="M61.13,23.85l11.28-13.89h-6.15c-2.76,0-4.65.84-6.33,2.81l-5.94,7.31V0h-5.96c-1.4,0-2.54,1.14-2.54,2.55v37.45h5.96c1.4,0,2.54-1.14,2.54-2.54v-9.96l4.83,5.93,4.11,5.06c.83,1.04,1.92,1.52,3.04,1.52h8.32l-5.38-6.6-7.77-9.55ZM87.21,32.93c-1.25,0-2.28-1.02-2.28-2.28V0h-5.96c-1.4,0-2.54,1.14-2.54,2.54v29.7c0,4.59,3.17,7.76,7.76,7.76h6.55c1.4,0,2.55-1.14,2.55-2.54v-4.53h-6.07Z"/>
  <path class="cls-1" d="M54.8,19.05v-.02s0,0,0,.01h0ZM94.51,13.39v-5.64s-.53.56-.53.56c-.02,0-1.62,1.64-6.2,1.64h-21.67c-3.42,0-5.04,1.4-6.26,2.9l-.67.82s-.04.05-.06.07l-4.3,5.3c1.57-1.18,3.71-1.89,5.89-1.89h27.08c3.28,0,6.44-.96,6.7-3.43.04-.2.03-.33.03-.33Z"/>
</svg>